<svg width="22" height="21" viewBox="0 0 22 21" fill="none" xmlns="http://www.w3.org/2000/svg">
<path d="M4.98977 15.2615C4.75587 14.9828 4.76971 14.5786 5.00786 14.3167L5.07836 14.2489L16.0903 5.00887C16.3943 4.75371 16.8477 4.79338 17.1029 5.09746C17.3367 5.37621 17.3229 5.78038 17.0848 6.04234L17.0143 6.11006L6.00237 15.3501C5.69828 15.6053 5.24493 15.5656 4.98977 15.2615Z" fill="white"/>
<path d="M8.33878 5.5798C7.94326 5.54605 7.64999 5.19806 7.68373 4.80255C7.71441 4.44299 8.00479 4.16792 8.35449 4.14624L8.46098 4.1475L16.6132 4.84305C16.9739 4.87382 17.2493 5.16576 17.2697 5.51653L17.268 5.62332L16.538 13.7733C16.5026 14.1687 16.1534 14.4605 15.758 14.4251C15.3986 14.3929 15.1247 14.1012 15.1045 13.7514L15.1062 13.6451L15.7714 6.21391L8.33878 5.5798Z" fill="white"/>
</svg>
