<svg width="32" height="32" viewBox="0 0 32 32" fill="none" xmlns="http://www.w3.org/2000/svg">
<g clip-path="url(#clip0_111_2)">
<path d="M30.5421 0.931172C29.7661 0.109757 28.6175 -0.196261 27.5465 0.125863L2.57241 7.61524C1.44244 7.93897 0.641531 8.8683 0.425782 10.0489C0.205377 11.2504 0.975239 12.7757 1.98104 13.4135L9.78994 18.3629C10.5908 18.8702 11.6245 18.743 12.2873 18.0537L21.2293 8.77488C21.6794 8.2917 22.4244 8.2917 22.8745 8.77488C23.3247 9.24196 23.3247 9.99895 22.8745 10.4821L13.9171 19.7625C13.2527 20.4503 13.1286 21.5213 13.6175 22.3524L18.3888 30.486C18.9476 31.4524 19.9099 32 20.9654 32C21.0895 32 21.2293 32 21.3534 31.9839C22.5641 31.8228 23.5265 30.9692 23.8834 29.7612L31.2872 4.03967C31.6132 2.94445 31.3183 1.75259 30.5421 0.931172Z" fill="#E11E05"/>
</g>
<defs>
<clipPath id="clip0_111_2">
<rect width="32" height="32" fill="white"/>
</clipPath>
</defs>
</svg>
