<svg width="32" height="32" viewBox="0 0 32 32" fill="none" xmlns="http://www.w3.org/2000/svg">
<g clip-path="url(#clip0_111_6)">
<path d="M24.6978 19.7123C24.296 20.1139 24.1113 20.6947 24.2029 21.2643L25.5822 29.1363C25.6985 29.8035 25.4255 30.4787 24.884 30.8643C24.3534 31.2643 23.6474 31.3123 23.0687 30.9923L16.1971 27.2963C15.9581 27.1651 15.6928 27.0947 15.4213 27.0867H15.0008C14.855 27.1091 14.7123 27.1571 14.5819 27.2307L7.70871 30.9443C7.36892 31.1203 6.98415 31.1827 6.60713 31.1203C5.68863 30.9411 5.07578 30.0387 5.22628 29.0867L6.60713 21.2147C6.69867 20.6403 6.51404 20.0563 6.1122 19.6483L0.509676 14.0483C0.0411184 13.5795 -0.121791 12.8755 0.0923184 12.2403C0.300221 11.6067 0.83084 11.1443 1.47161 11.0403L9.18264 9.88669C9.76913 9.82429 10.2842 9.45629 10.548 8.91229L13.9458 1.72829C14.0265 1.56829 14.1304 1.42109 14.2561 1.29629L14.3957 1.18429C14.4687 1.10109 14.5524 1.03229 14.6455 0.976293L14.8147 0.912293L15.0784 0.800293H15.7316C16.315 0.862693 16.8285 1.22269 17.0969 1.76029L20.5397 8.91229C20.788 9.43549 21.2705 9.79869 21.8275 9.88669L29.5385 11.0403C30.1902 11.1363 30.7348 11.6003 30.9504 12.2403C31.1537 12.8819 30.9783 13.5859 30.5005 14.0483L24.6978 19.7123Z" fill="#E11E05"/>
</g>
<defs>
<clipPath id="clip0_111_6">
<rect width="32" height="32" fill="white"/>
</clipPath>
</defs>
</svg>
